<svg width="100" height="100" viewBox="0 0 100 99" fill="none" xmlns="http://www.w3.org/2000/svg">
<path d="M50 99C77.3381 99 99.5 76.8381 99.5 49.5C99.5 22.1619 77.3381 0 50 0C22.6619 0 0.5 22.1619 0.5 49.5C0.5 76.8381 22.6619 99 50 99Z" fill="#8B6ACE"/>
<path d="M36.6257 70.9517C37.3992 68.2225 39.4747 66.5973 40.3697 65.9758C38.2316 69.495 38.0161 72.193 38.4194 74.1883C39.6892 80.4736 47.7876 83.201 46.8493 86.9358C46.5371 88.1779 45.3585 89.0002 44.3825 89.5085C44.993 88.8934 45.7066 87.9625 45.7425 86.8161C45.8419 83.6246 40.3338 82.9285 37.6322 77.7932C37.1073 76.7951 35.7362 74.0907 36.6257 70.9508V70.9517ZM61.9061 41.6189C52.2341 34.9791 48.0399 24.6957 50.9174 17.0411C51.4855 15.5301 53.107 12.0523 57.8288 9.15546C49.6209 11.8525 43.8917 17.3901 43.5123 23.4618C43.435 24.7095 43.5584 26.3743 44.3392 28.3457C43.667 28.1827 42.8245 27.8531 42.0943 27.1643C40.5078 25.669 40.087 23.0852 40.936 20.5447C39.1248 23.2399 38.8982 25.3706 38.983 26.7316C39.4001 33.4239 48.503 39.8869 61.9061 41.6199V41.6189ZM56.1659 89.3565C54.5223 89.5241 53.3372 88.1125 53.0159 86.9717C52.5407 85.2857 53.7543 83.5878 55.0793 82.7848C56.6115 81.8576 58.2413 82.1578 58.629 82.2397C56.4964 81.0326 52.8298 82.2885 51.8695 84.1927C53.0278 79.1735 48.0988 78.7334 45.2361 74.6662C41.7665 70.1663 45.4561 66.4049 49.7949 64.7373C39.8881 66.0991 39.6929 73.4931 45.4709 79.2536C49.1927 82.3751 51.1052 84.5813 49.1126 88.9136C49.2222 88.8298 50.7194 87.7083 51.6466 88.1613C52.5426 88.5987 52.8897 90.4992 51.7046 92.6272C52.5011 92.5314 53.6392 92.3546 54.9771 92.002C56.9716 91.4762 57.9808 91.1972 58.582 90.4173C59.5894 89.1107 59.0157 87.2534 58.8233 86.7028C58.6106 88.1383 57.4716 89.2239 56.165 89.3575L56.1659 89.3565ZM84.3283 49.1078C84.0475 48.9623 83.5632 48.6649 83.1571 48.1225C82.6221 47.4089 82.5328 46.6851 82.5135 46.3721C81.3929 46.7284 80.6553 47.8306 81.5365 49.0949C82.4674 49.0995 83.3983 49.1041 84.3283 49.1078ZM89.8881 51.9668C89.506 51.0248 88.5658 50.1519 88.2564 49.6077C87.2887 48.4172 87.483 46.3187 87.4931 46.0111C87.5373 44.6447 85.1267 42.2331 74.0716 37.6549C74.4805 38.375 74.8902 39.0951 75.299 39.8142C72.7171 38.8612 69.3618 37.3354 65.8499 34.8732C62.7569 32.7047 60.4466 30.4424 58.7966 28.5731C60.0037 30.6965 61.9917 33.5924 65.1547 36.3677C69.8498 40.4882 74.7889 42.2847 77.6323 43.0876C77.5642 42.4624 77.4951 41.8363 77.427 41.211C81.414 42.7764 87.006 44.9172 85.3495 49.2514C88.2841 50.5681 89.47 53.7366 87.3863 55.6841C85.9701 50.3683 77.8045 50.4567 74.6121 52.3047C80.415 51.0773 85.4987 52.593 86.2104 58.0321C87.7684 57.7273 91.0216 55.0929 89.8881 51.9677V51.9668ZM60.4908 82.9156C61.9033 82.8125 63.6197 84.6817 62.5295 86.4183C65.3379 85.0951 63.1197 81.2858 60.4908 82.9156ZM57.3509 83.538C58.6842 83.5307 61.2063 85.2047 61.0056 87.3999C63.0948 84.9865 60.4338 82.2259 57.3509 83.538ZM33.0899 80.0648C32.647 78.0612 32.0568 74.122 33.2694 69.4177C34.3716 65.1434 36.4609 62.1821 37.7353 60.6278C36.297 61.7944 31.7391 65.183 25.0532 65.3248C16.5359 65.5052 10.9899 60.2797 9.9439 59.2558C11.3407 61.0145 15.4677 65.7216 22.4474 67.2916C25.6315 68.008 28.4086 67.8459 30.345 67.5512C30.2492 68.4711 30.2078 69.4803 30.2584 70.5632C30.4518 74.703 31.8975 77.9765 33.0899 80.0657V80.0648ZM27.4362 29.5998C26.8009 33.6532 27.4638 37.0362 28.0541 39.0914C27.3211 38.9284 26.4279 38.6162 25.5523 38.0067C22.4833 35.8704 22.289 31.9359 22.2678 31.318C22.1564 32.434 21.4151 41.1954 27.4896 46.6428C33.8385 52.3351 45.1412 52.1749 53.4238 44.9154C51.6761 44.7312 40.6947 43.4053 35.2031 34.6191C34.9922 34.2821 34.6976 33.7931 34.3799 33.1624C33.6737 31.7563 32.8422 29.6477 32.589 26.9894C32.0752 21.6027 34.2676 17.496 35.2132 15.9353C33.6 17.3229 28.6351 21.9563 27.4371 29.5989L27.4362 29.5998ZM48.9616 62.1996C52.8262 61.1342 56.025 60.8792 58.3261 60.8626C62.0571 60.8359 64.1906 61.4307 65.6887 59.9777C67.15 58.5606 66.3038 56.8461 67.6279 54.5193C68.9354 52.221 71.3433 51.1123 73.196 50.5331C68.5984 51.1455 66.4668 52.8397 65.3738 54.3351C64.1353 56.0284 64.477 57.1306 63.0608 58.3009C61.1336 59.8948 59.1244 58.9906 55.4007 59.672C53.8749 59.951 51.6098 60.5781 48.9616 62.2005V62.1996ZM13.4963 45.8831C13.4125 47.7616 13.5313 49.4705 13.7431 50.9678C13.2974 50.9282 12.6032 50.8094 11.8527 50.4217C10.7487 49.8508 10.14 49.0175 9.87577 48.6004C9.86564 50.256 10.1262 52.8001 11.7339 55.0552C15.6335 60.5237 24.1923 59.7153 26.95 59.4547C31.8965 58.9869 35.8035 57.0662 38.4434 55.3397C37.8752 55.4529 28.3773 57.1675 21.6122 49.9438C14.9493 42.8298 17.115 33.6403 17.2716 33.0224C15.7403 35.7249 13.7486 40.1761 13.4954 45.8831H13.4963ZM40.7988 11.5468C41.4479 12.0247 42.0207 13.0974 41.7389 15.683C42.3107 14.4353 43.6145 12.0403 46.2517 10.0422C49.5399 7.55052 52.9495 7.15366 54.3178 7.06894C51.317 6.40137 47.4322 6.01279 43.1026 6.84611C28.0522 9.74201 21.0809 24.808 20.1684 26.8614C21.3304 24.9867 23.1453 22.3965 25.8046 19.7252C30.263 15.2465 38.0843 9.5468 40.7997 11.5468H40.7988Z" fill="white"/>
</svg>
