<svg width="40" height="40" viewBox="0 0 40 40" fill="none" xmlns="http://www.w3.org/2000/svg">
<rect width="40" height="40" rx="20" fill="#49B7E8"/>
<path d="M9.22 15.172V21.052C9.22 21.64 9.36467 22.0927 9.654 22.41C9.94333 22.7273 10.368 22.886 10.928 22.886C11.488 22.886 11.9173 22.7273 12.216 22.41C12.5147 22.0927 12.664 21.64 12.664 21.052V15.172H15.058V21.038C15.058 21.9153 14.8713 22.6573 14.498 23.264C14.1247 23.8707 13.6207 24.328 12.986 24.636C12.3607 24.944 11.6607 25.098 10.886 25.098C10.1113 25.098 9.416 24.9487 8.8 24.65C8.19333 24.342 7.71267 23.8847 7.358 23.278C7.00333 22.662 6.826 21.9153 6.826 21.038V15.172H9.22ZM21.3591 25L19.8611 22.83L18.6011 25H16.0111L18.5871 21.01L15.9411 17.188H18.6291L20.1271 19.344L21.3871 17.188H23.9771L21.3591 21.122L24.0471 25H21.3591ZM32.4596 18.336C32.4596 18.9053 32.3289 19.428 32.0676 19.904C31.8062 20.3707 31.4049 20.7487 30.8636 21.038C30.3222 21.3273 29.6502 21.472 28.8476 21.472H27.3636V25H24.9696V15.172H28.8476C29.6316 15.172 30.2942 15.3073 30.8356 15.578C31.3769 15.8487 31.7829 16.222 32.0536 16.698C32.3242 17.174 32.4596 17.72 32.4596 18.336ZM28.6656 19.568C29.1229 19.568 29.4636 19.4607 29.6876 19.246C29.9116 19.0313 30.0236 18.728 30.0236 18.336C30.0236 17.944 29.9116 17.6407 29.6876 17.426C29.4636 17.2113 29.1229 17.104 28.6656 17.104H27.3636V19.568H28.6656Z" fill="white"/>
</svg>
