<?xml version="1.0" encoding="UTF-8"?><svg id="Capa_1" xmlns="http://www.w3.org/2000/svg" viewBox="0 0 185.12 182.68">
    <defs>
        <style>.cls-1{fill:#fdc600;}.cls-2{fill:#23b2e8;}</style>
    </defs>
    <path class="cls-2" d="m130.32,12.98l4.14,20.52c.51,2.53,2.71,4.37,5.29,4.44l20.93.51c8.64.21,14,9.49,9.86,17.09l-10.02,18.38c-1.24,2.27-.74,5.09,1.2,6.8l15.7,13.84c6.49,5.72,4.63,16.27-3.43,19.43l-19.49,7.64c-2.41.94-3.84,3.42-3.45,5.98l3.13,20.7c1.29,8.55-6.92,15.44-15.11,12.68l-19.84-6.68c-2.45-.82-5.14.16-6.49,2.36l-10.91,17.87c-4.51,7.38-15.22,7.38-19.73,0l-10.91-17.87c-1.35-2.21-4.04-3.19-6.49-2.36l-19.84,6.68c-8.2,2.76-16.41-4.13-15.11-12.68l3.13-20.7c.39-2.55-1.05-5.04-3.45-5.98l-19.49-7.64c-8.05-3.16-9.91-13.71-3.43-19.43l15.7-13.84c1.94-1.71,2.44-4.53,1.2-6.8l-10.02-18.38c-4.14-7.59,1.22-16.87,9.86-17.09l20.93-.51c2.58-.06,4.78-1.91,5.29-4.44l4.14-20.52c1.71-8.48,11.78-12.14,18.54-6.75l16.36,13.06c2.02,1.61,4.89,1.61,6.9,0l16.36-13.06c6.76-5.39,16.83-1.73,18.54,6.75Zm-41.87,31.53l-10.88-8.68c-3.3-2.63-8.22-.84-9.05,3.3l-2.75,13.64c-.52,2.58-2.76,4.46-5.39,4.53l-13.91.34c-4.22.1-6.84,4.64-4.82,8.34l6.66,12.22c1.26,2.31.75,5.19-1.22,6.94l-10.44,9.2c-3.17,2.79-2.26,7.95,1.67,9.49l12.96,5.08c2.45.96,3.92,3.49,3.52,6.1l-2.08,13.76c-.63,4.18,3.38,7.54,7.38,6.19l13.19-4.44c2.5-.84,5.24.16,6.62,2.41l7.25,11.88c2.2,3.6,7.43,3.6,9.63,0l7.25-11.88c1.37-2.25,4.12-3.25,6.62-2.41l13.19,4.44c4,1.35,8.01-2.02,7.38-6.19l-2.08-13.76c-.39-2.61,1.07-5.14,3.52-6.1l12.96-5.08c3.93-1.54,4.84-6.7,1.67-9.49l-10.44-9.2c-1.98-1.74-2.48-4.62-1.22-6.94l6.66-12.22c2.02-3.71-.6-8.24-4.82-8.34l-13.91-.34c-2.63-.06-4.87-1.94-5.39-4.53l-2.75-13.64c-.83-4.14-5.75-5.93-9.05-3.3l-10.88,8.68c-2.06,1.64-4.98,1.64-7.04,0Z"/><path class="cls-1" d="m63.04,73.91h13.11c.27,0,.49.22.49.49v21.35c0,.09.05.3.15.65.1.35.44.52,1.02.52s.92-.17,1.02-.52c.1-.35.15-.57.15-.65v-21.35c0-.27.22-.49.49-.49h13.11c.27,0,.49.22.49.49v21.96c0,1.6-.26,3.1-.78,4.5-.52,1.41-1.38,2.65-2.57,3.74-1.19,1.09-2.79,1.94-4.81,2.57-2.02.62-4.52.93-7.51.93-2.64,0-4.9-.32-6.79-.96-1.89-.64-3.42-1.51-4.61-2.61-1.19-1.1-2.07-2.35-2.63-3.74-.57-1.39-.85-2.84-.85-4.35v-22.05c0-.27.22-.49.49-.49Z"/><path class="cls-1" d="m107.79,107.42h-12.72c-.27,0-.49-.22-.49-.49v-32.52c0-.27.22-.49.49-.49h19.83c1.86,0,3.56.36,5.11,1.07,1.55.71,2.79,1.94,3.72,3.7.93,1.76,1.39,4.18,1.39,7.29s-.48,5.46-1.44,7.25c-.96,1.78-2.21,3.06-3.76,3.83-1.55.77-3.23,1.15-5.03,1.15h-6.12c-.27,0-.49.22-.49.49v8.24c0,.27-.22.49-.49.49Zm3.89-22.5h-3.8c-.21,0-.38.17-.38.38v1.6c0,.21.17.38.38.38h3.93c.23,0,.49-.07.76-.22.28-.14.41-.45.41-.91,0-.49-.16-.82-.48-.98-.32-.16-.59-.24-.83-.24Z"/>
</svg>