<svg xmlns="http://www.w3.org/2000/svg" width="19" height="16" viewBox="0 0 19 16" fill="none">
  <path d="M17.9493 8.53055L11.4693 15.2806C11.3342 15.4213 11.1509 15.5003 10.9599 15.5003C10.7688 15.5003 10.5856 15.4213 10.4505 15.2806C10.3154 15.1398 10.2395 14.949 10.2395 14.7499C10.2395 14.5509 10.3154 14.36 10.4505 14.2193L15.702 8.74993H1.59988C1.40893 8.74993 1.22579 8.67091 1.09077 8.53026C0.95574 8.38961 0.879883 8.19884 0.879883 7.99993C0.879883 7.80102 0.95574 7.61025 1.09077 7.4696C1.22579 7.32895 1.40893 7.24993 1.59988 7.24993H15.702L10.4505 1.78055C10.3154 1.63982 10.2395 1.44895 10.2395 1.24993C10.2395 1.05091 10.3154 0.860034 10.4505 0.719304C10.5856 0.578573 10.7688 0.499512 10.9599 0.499512C11.1509 0.499512 11.3342 0.578573 11.4693 0.719304L17.9493 7.4693C18.0162 7.53896 18.0693 7.62167 18.1056 7.71272C18.1418 7.80377 18.1604 7.90137 18.1604 7.99993C18.1604 8.09849 18.1418 8.19609 18.1056 8.28713C18.0693 8.37818 18.0162 8.4609 17.9493 8.53055Z" fill="white"/>
</svg>