<svg width="17" height="18" viewBox="0 0 17 18" fill="none" xmlns="http://www.w3.org/2000/svg">
<path d="M6.45085 1.48661C6.45085 1.30546 6.52281 1.13173 6.65091 1.00363C6.779 0.875539 6.95273 0.803576 7.13388 0.803576H9.86603C10.0472 0.803576 10.2209 0.875539 10.349 1.00363C10.4771 1.13173 10.5491 1.30546 10.5491 1.48661C10.5491 1.66776 10.4771 1.8415 10.349 1.96959C10.2209 2.09769 10.0472 2.16965 9.86603 2.16965H7.13388C6.95273 2.16965 6.779 2.09769 6.65091 1.96959C6.52281 1.8415 6.45085 1.66776 6.45085 1.48661ZM9.86603 15.8304H7.13388C6.95273 15.8304 6.779 15.9023 6.65091 16.0304C6.52281 16.1585 6.45085 16.3322 6.45085 16.5134C6.45085 16.6946 6.52281 16.8683 6.65091 16.9964C6.779 17.1245 6.95273 17.1964 7.13388 17.1964H9.86603C10.0472 17.1964 10.2209 17.1245 10.349 16.9964C10.4771 16.8683 10.5491 16.6946 10.5491 16.5134C10.5491 16.3322 10.4771 16.1585 10.349 16.0304C10.2209 15.9023 10.0472 15.8304 9.86603 15.8304ZM15.3303 0.803576H13.2812C13.1001 0.803576 12.9263 0.875539 12.7982 1.00363C12.6701 1.13173 12.5982 1.30546 12.5982 1.48661C12.5982 1.66776 12.6701 1.8415 12.7982 1.96959C12.9263 2.09769 13.1001 2.16965 13.2812 2.16965H15.3303V4.21876C15.3303 4.39991 15.4023 4.57364 15.5304 4.70173C15.6585 4.82983 15.8322 4.90179 16.0133 4.90179C16.1945 4.90179 16.3682 4.82983 16.4963 4.70173C16.6244 4.57364 16.6964 4.39991 16.6964 4.21876V2.16965C16.6964 1.80734 16.5525 1.45988 16.2963 1.20369C16.0401 0.947501 15.6926 0.803576 15.3303 0.803576ZM16.0133 6.9509C15.8322 6.9509 15.6585 7.02286 15.5304 7.15096C15.4023 7.27905 15.3303 7.45278 15.3303 7.63393V10.3661C15.3303 10.5472 15.4023 10.721 15.5304 10.8491C15.6585 10.9772 15.8322 11.0491 16.0133 11.0491C16.1945 11.0491 16.3682 10.9772 16.4963 10.8491C16.6244 10.721 16.6964 10.5472 16.6964 10.3661V7.63393C16.6964 7.45278 16.6244 7.27905 16.4963 7.15096C16.3682 7.02286 16.1945 6.9509 16.0133 6.9509ZM0.986564 11.0491C1.16772 11.0491 1.34145 10.9772 1.46954 10.8491C1.59764 10.721 1.6696 10.5472 1.6696 10.3661V7.63393C1.6696 7.45278 1.59764 7.27905 1.46954 7.15096C1.34145 7.02286 1.16772 6.9509 0.986564 6.9509C0.805411 6.9509 0.631679 7.02286 0.503584 7.15096C0.37549 7.27905 0.303528 7.45278 0.303528 7.63393V10.3661C0.303528 10.5472 0.37549 10.721 0.503584 10.8491C0.631679 10.9772 0.805411 11.0491 0.986564 11.0491ZM3.71871 15.8304H1.6696V13.7813C1.6696 13.6001 1.59764 13.4264 1.46954 13.2983C1.34145 13.1702 1.16772 13.0982 0.986564 13.0982C0.805411 13.0982 0.631679 13.1702 0.503584 13.2983C0.37549 13.4264 0.303528 13.6001 0.303528 13.7813V15.8304C0.303528 16.1927 0.447453 16.5401 0.703641 16.7963C0.959829 17.0525 1.30729 17.1964 1.6696 17.1964H3.71871C3.89986 17.1964 4.07359 17.1245 4.20169 16.9964C4.32978 16.8683 4.40174 16.6946 4.40174 16.5134C4.40174 16.3322 4.32978 16.1585 4.20169 16.0304C4.07359 15.9023 3.89986 15.8304 3.71871 15.8304ZM2.17505 1.02727C2.11506 0.959656 2.04226 0.904618 1.96085 0.865349C1.87944 0.826079 1.79104 0.803358 1.70078 0.798502C1.61053 0.793647 1.52021 0.806753 1.43505 0.837062C1.3499 0.867371 1.27161 0.914279 1.20472 0.975069C1.13783 1.03586 1.08367 1.10932 1.04537 1.19119C1.00708 1.27307 0.985424 1.36173 0.981651 1.45204C0.977878 1.54235 0.992067 1.63251 1.02339 1.71729C1.05472 1.80207 1.10257 1.8798 1.16415 1.94595L14.8249 16.9727C14.8848 17.0404 14.9577 17.0954 15.0391 17.1347C15.1205 17.1739 15.2089 17.1967 15.2991 17.2015C15.3894 17.2064 15.4797 17.1933 15.5649 17.163C15.65 17.1326 15.7283 17.0857 15.7952 17.0249C15.8621 16.9642 15.9162 16.8907 15.9545 16.8088C15.9928 16.7269 16.0145 16.6383 16.0183 16.548C16.022 16.4577 16.0078 16.3675 15.9765 16.2827C15.9452 16.1979 15.8973 16.1202 15.8358 16.0541L2.17505 1.02727Z" fill="#AD3459"/>
</svg>
