<svg width="17" height="18" viewBox="0 0 17 18" fill="none" xmlns="http://www.w3.org/2000/svg">
<path d="M15.3303 15.8928H15.3928V15.8303V2.1696V2.1071H15.3303H1.6696H1.6071V2.1696V15.8303V15.8928H1.6696H15.3303ZM1.6696 0.866028H15.3303C15.676 0.866028 16.0076 1.00337 16.2521 1.24783C16.4965 1.4923 16.6339 1.82387 16.6339 2.1696V15.8303C16.6339 16.176 16.4965 16.5076 16.2521 16.7521C16.0076 16.9965 15.676 17.1339 15.3303 17.1339H1.6696C1.32387 17.1339 0.992302 16.9965 0.747835 16.7521C0.503368 16.5076 0.366028 16.176 0.366028 15.8303V2.1696C0.366028 1.82387 0.503368 1.4923 0.747835 1.24783C0.992302 1.00337 1.32387 0.866028 1.6696 0.866028ZM12.5357 8.99996C12.5357 9.16453 12.4703 9.32237 12.3539 9.43874C12.2375 9.55511 12.0797 9.62049 11.9151 9.62049H5.08478C4.9202 9.62049 4.76237 9.55511 4.64599 9.43874C4.52962 9.32237 4.46424 9.16453 4.46424 8.99996C4.46424 8.83538 4.52962 8.67754 4.64599 8.56117C4.76237 8.4448 4.9202 8.37942 5.08478 8.37942H11.9151C12.0797 8.37942 12.2375 8.4448 12.3539 8.56117C12.4703 8.67754 12.5357 8.83538 12.5357 8.99996Z" fill="#AD3459" stroke="#61439D" stroke-width="0.125"/>
</svg>
