<svg width="106" height="106" viewBox="0 0 106 106" fill="none" xmlns="http://www.w3.org/2000/svg">
<path d="M53 9.9375C44.4831 9.9375 36.1574 12.4631 29.0758 17.1948C21.9942 21.9266 16.4748 28.6521 13.2155 36.5207C9.95616 44.3893 9.10338 53.0478 10.765 61.4011C12.4265 69.7544 16.5278 77.4274 22.5502 83.4498C28.5726 89.4722 36.2456 93.5735 44.5989 95.2351C52.9522 96.8966 61.6107 96.0439 69.4793 92.7846C77.348 89.5253 84.0734 84.0058 88.8052 76.9242C93.5369 69.8426 96.0625 61.517 96.0625 53C96.0505 41.5828 91.5097 30.6367 83.4365 22.5635C75.3633 14.4904 64.4172 9.94956 53 9.9375ZM53 89.4375C45.7934 89.4375 38.7485 87.3005 32.7564 83.2967C26.7643 79.2929 22.094 73.6021 19.3362 66.944C16.5783 60.2859 15.8567 52.9596 17.2627 45.8914C18.6686 38.8232 22.1389 32.3307 27.2348 27.2348C32.3307 22.1389 38.8232 18.6686 45.8914 17.2626C52.9596 15.8567 60.286 16.5783 66.944 19.3361C73.6021 22.094 79.2929 26.7643 83.2967 32.7564C87.3005 38.7485 89.4375 45.7933 89.4375 53C89.4266 62.6605 85.5841 71.9221 78.7531 78.7531C71.9221 85.5841 62.6605 89.4265 53 89.4375ZM78.5311 50.6564C78.8389 50.9642 79.083 51.3295 79.2496 51.7317C79.4161 52.1338 79.5019 52.5648 79.5019 53C79.5019 53.4352 79.4161 53.8662 79.2496 54.2683C79.083 54.6705 78.8389 55.0358 78.5311 55.3436C78.2233 55.6514 77.858 55.8955 77.4559 56.062C77.0537 56.2286 76.6228 56.3143 76.1875 56.3143C75.7523 56.3143 75.3213 56.2286 74.9192 56.062C74.5171 55.8955 74.1517 55.6514 73.8439 55.3436L69.5625 51.058L65.2811 55.3436C64.6595 55.9652 63.8165 56.3143 62.9375 56.3143C62.0585 56.3143 61.2155 55.9652 60.5939 55.3436C59.9724 54.722 59.6232 53.879 59.6232 53C59.6232 52.121 59.9724 51.278 60.5939 50.6564L64.8795 46.375L60.5939 42.0936C59.9724 41.472 59.6232 40.629 59.6232 39.75C59.6232 38.871 59.9724 38.028 60.5939 37.4064C61.2155 36.7848 62.0585 36.4357 62.9375 36.4357C63.8165 36.4357 64.6595 36.7848 65.2811 37.4064L69.5625 41.692L73.8439 37.4064C74.1517 37.0986 74.5171 36.8545 74.9192 36.6879C75.3213 36.5214 75.7523 36.4357 76.1875 36.4357C76.6228 36.4357 77.0537 36.5214 77.4559 36.6879C77.858 36.8545 78.2233 37.0986 78.5311 37.4064C78.8389 37.7142 79.083 38.0795 79.2496 38.4817C79.4161 38.8838 79.5019 39.3148 79.5019 39.75C79.5019 40.1852 79.4161 40.6162 79.2496 41.0183C79.083 41.4205 78.8389 41.7858 78.5311 42.0936L74.2456 46.375L78.5311 50.6564ZM45.4061 42.0936L41.1206 46.375L45.4061 50.6564C46.0277 51.278 46.3769 52.121 46.3769 53C46.3769 53.879 46.0277 54.722 45.4061 55.3436C44.7846 55.9652 43.9415 56.3143 43.0625 56.3143C42.1835 56.3143 41.3405 55.9652 40.7189 55.3436L36.4375 51.058L32.1561 55.3436C31.5346 55.9652 30.6915 56.3143 29.8125 56.3143C28.9335 56.3143 28.0905 55.9652 27.4689 55.3436C26.8474 54.722 26.4982 53.879 26.4982 53C26.4982 52.121 26.8474 51.278 27.4689 50.6564L31.7545 46.375L27.4689 42.0936C26.8474 41.472 26.4982 40.629 26.4982 39.75C26.4982 38.871 26.8474 38.028 27.4689 37.4064C28.0905 36.7848 28.9335 36.4357 29.8125 36.4357C30.6915 36.4357 31.5346 36.7848 32.1561 37.4064L36.4375 41.692L40.7189 37.4064C41.3405 36.7848 42.1835 36.4357 43.0625 36.4357C43.9415 36.4357 44.7846 36.7848 45.4061 37.4064C46.0277 38.028 46.3769 38.871 46.3769 39.75C46.3769 40.629 46.0277 41.472 45.4061 42.0936ZM57.9688 74.5312C57.9688 75.514 57.6774 76.4746 57.1314 77.2917C56.5854 78.1088 55.8094 78.7457 54.9015 79.1218C53.9935 79.4978 52.9945 79.5962 52.0307 79.4045C51.0668 79.2128 50.1815 78.7396 49.4866 78.0447C48.7917 77.3498 48.3185 76.4644 48.1267 75.5006C47.935 74.5368 48.0334 73.5377 48.4095 72.6298C48.7856 71.7219 49.4224 70.9459 50.2395 70.3999C51.0566 69.8539 52.0173 69.5625 53 69.5625C54.3178 69.5625 55.5816 70.086 56.5135 71.0178C57.4453 71.9496 57.9688 73.2135 57.9688 74.5312Z" fill="#714FB6"/>
</svg>
