<svg xmlns="http://www.w3.org/2000/svg" width="15" height="15" viewBox="0 0 15 15" fill="none">
  <path d="M14.6208 2.18274C14.7714 2.03211 14.7714 1.78789 14.6208 1.63726L13.7563 0.772741C13.6057 0.62211 13.3614 0.62211 13.2108 0.772741L8.1663 5.81726C8.01567 5.96789 7.77144 5.96789 7.62081 5.81726L2.5763 0.772741C2.42567 0.622111 2.18144 0.62211 2.03081 0.772741L1.1663 1.63726C1.01567 1.78789 1.01567 2.03211 1.1663 2.18274L6.21081 7.22726C6.36144 7.37789 6.36144 7.62211 6.21081 7.77274L1.1663 12.8173C1.01567 12.9679 1.01567 13.2121 1.1663 13.3627L2.03081 14.2273C2.18144 14.3779 2.42567 14.3779 2.5763 14.2273L7.62081 9.18274C7.77144 9.03211 8.01567 9.03211 8.1663 9.18274L13.2108 14.2273C13.3614 14.3779 13.6057 14.3779 13.7563 14.2273L14.6208 13.3627C14.7714 13.2121 14.7714 12.9679 14.6208 12.8173L9.5763 7.77274C9.42566 7.62211 9.42566 7.37789 9.5763 7.22726L14.6208 2.18274Z" fill="white"/>
</svg>