<svg width="33" height="33" viewBox="0 0 33 33" fill="none" xmlns="http://www.w3.org/2000/svg">
<rect x="0.893555" y="0.5" width="32" height="32" rx="16" fill="#AD3459"/>
<path d="M23.6208 11.1827C23.7714 11.0321 23.7714 10.7879 23.6208 10.6373L22.7563 9.77274C22.6057 9.62211 22.3614 9.62211 22.2108 9.77274L17.1663 14.8173C17.0157 14.9679 16.7714 14.9679 16.6208 14.8173L11.5763 9.77274C11.4257 9.62211 11.1814 9.62211 11.0308 9.77274L10.1663 10.6373C10.0157 10.7879 10.0157 11.0321 10.1663 11.1827L15.2108 16.2273C15.3614 16.3779 15.3614 16.6221 15.2108 16.7727L10.1663 21.8173C10.0157 21.9679 10.0157 22.2121 10.1663 22.3627L11.0308 23.2273C11.1814 23.3779 11.4257 23.3779 11.5763 23.2273L16.6208 18.1827C16.7714 18.0321 17.0157 18.0321 17.1663 18.1827L22.2108 23.2273C22.3614 23.3779 22.6057 23.3779 22.7563 23.2273L23.6208 22.3627C23.7714 22.2121 23.7714 21.9679 23.6208 21.8173L18.5763 16.7727C18.4257 16.6221 18.4257 16.3779 18.5763 16.2273L23.6208 11.1827Z" fill="white"/>
</svg>
