<svg width="24" height="25" viewBox="0 0 24 25" fill="none" xmlns="http://www.w3.org/2000/svg">
<path d="M5.05499 3.74563C4.98913 3.67138 4.90918 3.61095 4.81979 3.56783C4.7304 3.52471 4.63334 3.49976 4.53423 3.49443C4.43513 3.4891 4.33595 3.50349 4.24245 3.53677C4.14895 3.57005 4.06298 3.62156 3.98953 3.68831C3.91608 3.75506 3.85661 3.83572 3.81457 3.92562C3.77252 4.01552 3.74874 4.11288 3.7446 4.21204C3.74045 4.3112 3.75603 4.4102 3.79043 4.50329C3.82483 4.59639 3.87737 4.68173 3.94499 4.75438L5.74874 6.73906C2.34374 8.82875 0.879366 12.05 0.814679 12.1963C0.772035 12.2922 0.75 12.396 0.75 12.5009C0.75 12.6059 0.772035 12.7097 0.814679 12.8056C0.847491 12.8797 1.64155 14.6403 3.40687 16.4056C5.75905 18.7569 8.72999 20 12 20C13.6806 20.0096 15.3442 19.6636 16.8816 18.9847L18.9441 21.2544C19.0099 21.3286 19.0899 21.3891 19.1793 21.4322C19.2686 21.4753 19.3657 21.5002 19.4648 21.5056C19.5639 21.5109 19.6631 21.4965 19.7566 21.4632C19.8501 21.43 19.9361 21.3784 20.0095 21.3117C20.083 21.2449 20.1424 21.1643 20.1845 21.0744C20.2265 20.9845 20.2503 20.8871 20.2544 20.788C20.2586 20.6888 20.243 20.5898 20.2086 20.4967C20.1742 20.4036 20.1217 20.3183 20.0541 20.2456L5.05499 3.74563ZM9.49218 10.8556L13.3987 15.1541C12.8105 15.4636 12.136 15.5689 11.4814 15.4535C10.8268 15.3382 10.229 15.0087 9.78189 14.5168C9.33481 14.0248 9.06377 13.3984 9.01134 12.7357C8.9589 12.073 9.12803 11.4117 9.49218 10.8556ZM12 18.5C9.11437 18.5 6.59343 17.4509 4.50655 15.3828C3.64997 14.5315 2.92145 13.5605 2.34374 12.5C2.78343 11.6759 4.18687 9.36969 6.7828 7.87063L8.4703 9.72219C7.81699 10.5589 7.48052 11.5997 7.52036 12.6605C7.56021 13.7213 7.97379 14.7339 8.68802 15.5192C9.40225 16.3046 10.3711 16.8122 11.4234 16.9522C12.4757 17.0923 13.5436 16.8559 14.4384 16.2847L15.8194 17.8034C14.6006 18.271 13.3053 18.5072 12 18.5ZM12.5625 9.55344C12.3671 9.51614 12.1944 9.40274 12.0826 9.23818C11.9708 9.07361 11.9289 8.87137 11.9662 8.67594C12.0035 8.48051 12.1169 8.3079 12.2815 8.19608C12.4461 8.08426 12.6483 8.04239 12.8437 8.07969C13.7996 8.265 14.67 8.75436 15.325 9.47477C15.98 10.1952 16.3846 11.108 16.4784 12.0772C16.4969 12.2752 16.436 12.4725 16.3091 12.6257C16.1822 12.7788 15.9996 12.8752 15.8016 12.8938C15.7781 12.8951 15.7547 12.8951 15.7312 12.8938C15.5438 12.8946 15.3628 12.8251 15.224 12.6992C15.0852 12.5732 14.9986 12.3998 14.9812 12.2131C14.9181 11.5685 14.6486 10.9615 14.2128 10.4823C13.7771 10.0031 13.1982 9.67731 12.5625 9.55344ZM23.1825 12.8056C23.1431 12.8938 22.1934 14.9966 20.055 16.9119C19.9819 16.9794 19.8961 17.0317 19.8027 17.0658C19.7092 17.0998 19.6099 17.1149 19.5105 17.1102C19.4111 17.1055 19.3136 17.0811 19.2238 17.0384C19.1339 16.9956 19.0535 16.9354 18.9871 16.8613C18.9208 16.7872 18.8698 16.7006 18.8373 16.6066C18.8047 16.5125 18.7912 16.413 18.7975 16.3137C18.8037 16.2144 18.8297 16.1173 18.8739 16.0282C18.918 15.939 18.9795 15.8595 19.0547 15.7944C20.1038 14.8518 20.9851 13.7378 21.6609 12.5C21.0819 11.4385 20.3518 10.4668 19.4934 9.61531C17.4066 7.54906 14.8856 6.5 12 6.5C11.392 6.49926 10.7849 6.54849 10.185 6.64719C10.0874 6.66444 9.98741 6.66219 9.89073 6.64058C9.79404 6.61896 9.70259 6.57839 9.62167 6.52123C9.54074 6.46407 9.47195 6.39144 9.41925 6.30754C9.36656 6.22363 9.33101 6.13012 9.31466 6.0324C9.29832 5.93469 9.30149 5.8347 9.32401 5.73821C9.34652 5.64173 9.38793 5.55066 9.44584 5.47027C9.50375 5.38988 9.57702 5.32176 9.6614 5.26985C9.74579 5.21794 9.83963 5.18326 9.93749 5.16781C10.6192 5.05525 11.309 4.99912 12 5C15.27 5 18.2409 6.24313 20.5931 8.59531C22.3584 10.3606 23.1525 12.1222 23.1853 12.1963C23.2279 12.2922 23.25 12.396 23.25 12.5009C23.25 12.6059 23.2279 12.7097 23.1853 12.8056H23.1825Z" fill="#1D1A28"/>
</svg>