<svg width="19" height="17" viewBox="0 0 19 17" fill="none" xmlns="http://www.w3.org/2000/svg">
<path d="M18.0755 5.69919L9.87909 0.234908C9.76684 0.160021 9.63493 0.120056 9.5 0.120056C9.36507 0.120056 9.23316 0.160021 9.12092 0.234908L0.924486 5.69919C0.830919 5.76162 0.754217 5.84619 0.701193 5.94539C0.648168 6.04458 0.620462 6.15534 0.620535 6.26782V15.1473C0.620535 15.5096 0.76446 15.8571 1.02065 16.1132C1.27684 16.3694 1.6243 16.5134 1.98661 16.5134H17.0134C17.3757 16.5134 17.7232 16.3694 17.9794 16.1132C18.2355 15.8571 18.3795 15.5096 18.3795 15.1473V6.26782C18.3795 6.15534 18.3518 6.04458 18.2988 5.94539C18.2458 5.84619 18.1691 5.76162 18.0755 5.69919ZM6.82933 11.0491L1.98661 14.4642V7.59376L6.82933 11.0491ZM8.22699 11.7321H10.773L15.608 15.1473H3.39195L8.22699 11.7321ZM12.1707 11.0491L17.0134 7.59376V14.4642L12.1707 11.0491ZM9.5 1.62403L16.4934 6.2866L10.773 10.366H8.2287L2.50828 6.2866L9.5 1.62403Z" fill="#61439D"/>
</svg>
