<svg width="25" height="24" viewBox="0 0 25 24" fill="none" xmlns="http://www.w3.org/2000/svg">
<path d="M20 3H5C4.60218 3 4.22064 3.15804 3.93934 3.43934C3.65804 3.72064 3.5 4.10218 3.5 4.5V19.5C3.5 19.8978 3.65804 20.2794 3.93934 20.5607C4.22064 20.842 4.60218 21 5 21H15.1897C15.3867 21.0006 15.582 20.9621 15.764 20.8866C15.946 20.8111 16.1112 20.7002 16.25 20.5603L21.0603 15.75C21.2002 15.6112 21.3111 15.446 21.3866 15.264C21.4621 15.082 21.5006 14.8867 21.5 14.6897V4.5C21.5 4.10218 21.342 3.72064 21.0607 3.43934C20.7794 3.15804 20.3978 3 20 3ZM5 4.5H20V14.25H15.5C15.3011 14.25 15.1103 14.329 14.9697 14.4697C14.829 14.6103 14.75 14.8011 14.75 15V19.5H5V4.5ZM18.9397 15.75L16.25 18.4397V15.75H18.9397Z" fill="#908DA8"/>
</svg>
