<svg width="25" height="24" viewBox="0 0 25 24" fill="none" xmlns="http://www.w3.org/2000/svg">
<path d="M20 3H5C4.60218 3 4.22064 3.15804 3.93934 3.43934C3.65804 3.72064 3.5 4.10218 3.5 4.5V19.5C3.5 19.8978 3.65804 20.2794 3.93934 20.5607C4.22064 20.842 4.60218 21 5 21H20C20.3978 21 20.7794 20.842 21.0607 20.5607C21.342 20.2794 21.5 19.8978 21.5 19.5V4.5C21.5 4.10218 21.342 3.72064 21.0607 3.43934C20.7794 3.15804 20.3978 3 20 3ZM20 19.5H5V4.5H20V19.5ZM16.0306 9.53063L13.5603 12L16.0306 14.4694C16.1003 14.5391 16.1556 14.6218 16.1933 14.7128C16.231 14.8039 16.2504 14.9015 16.2504 15C16.2504 15.0985 16.231 15.1961 16.1933 15.2872C16.1556 15.3782 16.1003 15.4609 16.0306 15.5306C15.9609 15.6003 15.8782 15.6556 15.7872 15.6933C15.6961 15.731 15.5985 15.7504 15.5 15.7504C15.4015 15.7504 15.3039 15.731 15.2128 15.6933C15.1218 15.6556 15.0391 15.6003 14.9694 15.5306L12.5 13.0603L10.0306 15.5306C9.96094 15.6003 9.87822 15.6556 9.78717 15.6933C9.69613 15.731 9.59855 15.7504 9.5 15.7504C9.40145 15.7504 9.30387 15.731 9.21283 15.6933C9.12178 15.6556 9.03906 15.6003 8.96937 15.5306C8.89969 15.4609 8.84442 15.3782 8.8067 15.2872C8.76899 15.1961 8.74958 15.0985 8.74958 15C8.74958 14.9015 8.76899 14.8039 8.8067 14.7128C8.84442 14.6218 8.89969 14.5391 8.96937 14.4694L11.4397 12L8.96937 9.53063C8.82864 9.38989 8.74958 9.19902 8.74958 9C8.74958 8.80098 8.82864 8.61011 8.96937 8.46937C9.11011 8.32864 9.30098 8.24958 9.5 8.24958C9.69902 8.24958 9.88989 8.32864 10.0306 8.46937L12.5 10.9397L14.9694 8.46937C15.0391 8.39969 15.1218 8.34442 15.2128 8.3067C15.3039 8.26899 15.4015 8.24958 15.5 8.24958C15.5985 8.24958 15.6961 8.26899 15.7872 8.3067C15.8782 8.34442 15.9609 8.39969 16.0306 8.46937C16.1003 8.53906 16.1556 8.62178 16.1933 8.71283C16.231 8.80387 16.2504 8.90145 16.2504 9C16.2504 9.09855 16.231 9.19613 16.1933 9.28717C16.1556 9.37822 16.1003 9.46094 16.0306 9.53063Z" fill="#908DA8"/>
</svg>
