<svg width="25" height="24" viewBox="0 0 25 24" fill="none" xmlns="http://www.w3.org/2000/svg">
<path d="M22.9466 12.4688L19.9466 4.96875C19.8805 4.80355 19.7579 4.66721 19.6006 4.58409C19.4433 4.50097 19.2615 4.47648 19.0878 4.515L13.25 5.8125V3.75C13.25 3.55109 13.171 3.36032 13.0303 3.21967C12.8897 3.07902 12.6989 3 12.5 3C12.3011 3 12.1103 3.07902 11.9697 3.21967C11.829 3.36032 11.75 3.55109 11.75 3.75V6.14813L5.58689 7.51781C5.46806 7.54406 5.35741 7.59883 5.26447 7.67739C5.17153 7.75595 5.09911 7.85595 5.05345 7.96875V7.97437L2.05345 15.4688C2.01756 15.5581 1.99941 15.6537 2.00001 15.75C2.00001 17.9353 4.30064 18.75 5.75001 18.75C7.19939 18.75 9.50001 17.9353 9.50001 15.75C9.50062 15.6537 9.48247 15.5581 9.44658 15.4688L6.77376 8.79094L11.75 7.6875V19.5H10.25C10.0511 19.5 9.86034 19.579 9.71968 19.7197C9.57903 19.8603 9.50001 20.0511 9.50001 20.25C9.50001 20.4489 9.57903 20.6397 9.71968 20.7803C9.86034 20.921 10.0511 21 10.25 21H14.75C14.9489 21 15.1397 20.921 15.2803 20.7803C15.421 20.6397 15.5 20.4489 15.5 20.25C15.5 20.0511 15.421 19.8603 15.2803 19.7197C15.1397 19.579 14.9489 19.5 14.75 19.5H13.25V7.35187L18.0313 6.29062L15.5535 12.4688C15.5176 12.5581 15.4994 12.6537 15.5 12.75C15.5 14.9353 17.8006 15.75 19.25 15.75C20.6994 15.75 23 14.9353 23 12.75C23.0006 12.6537 22.9825 12.5581 22.9466 12.4688ZM5.75001 17.25C5.04408 17.25 3.61626 16.9116 3.50658 15.8775L5.75001 10.2694L7.99345 15.8775C7.88376 16.9116 6.45595 17.25 5.75001 17.25ZM19.25 14.25C18.5441 14.25 17.1163 13.9116 17.0066 12.8775L19.25 7.26937L21.4935 12.8775C21.3838 13.9116 19.956 14.25 19.25 14.25Z" fill="#908DA8"/>
</svg>
