<svg width="25" height="24" viewBox="0 0 25 24" fill="none" xmlns="http://www.w3.org/2000/svg">
<path d="M21.5 4.5V7.125C21.5 7.32391 21.421 7.51468 21.2803 7.65533C21.1397 7.79598 20.9489 7.875 20.75 7.875C20.5511 7.875 20.3603 7.79598 20.2197 7.65533C20.079 7.51468 20 7.32391 20 7.125V4.5H17.375C17.1761 4.5 16.9853 4.42098 16.8447 4.28033C16.704 4.13968 16.625 3.94891 16.625 3.75C16.625 3.55109 16.704 3.36032 16.8447 3.21967C16.9853 3.07902 17.1761 3 17.375 3H20C20.3978 3 20.7794 3.15804 21.0607 3.43934C21.342 3.72064 21.5 4.10218 21.5 4.5ZM20.75 16.125C20.5511 16.125 20.3603 16.204 20.2197 16.3447C20.079 16.4853 20 16.6761 20 16.875V19.5H17.375C17.1761 19.5 16.9853 19.579 16.8447 19.7197C16.704 19.8603 16.625 20.0511 16.625 20.25C16.625 20.4489 16.704 20.6397 16.8447 20.7803C16.9853 20.921 17.1761 21 17.375 21H20C20.3978 21 20.7794 20.842 21.0607 20.5607C21.342 20.2794 21.5 19.8978 21.5 19.5V16.875C21.5 16.6761 21.421 16.4853 21.2803 16.3447C21.1397 16.204 20.9489 16.125 20.75 16.125ZM7.625 19.5H5V16.875C5 16.6761 4.92098 16.4853 4.78033 16.3447C4.63968 16.204 4.44891 16.125 4.25 16.125C4.05109 16.125 3.86032 16.204 3.71967 16.3447C3.57902 16.4853 3.5 16.6761 3.5 16.875V19.5C3.5 19.8978 3.65804 20.2794 3.93934 20.5607C4.22064 20.842 4.60218 21 5 21H7.625C7.82391 21 8.01468 20.921 8.15533 20.7803C8.29598 20.6397 8.375 20.4489 8.375 20.25C8.375 20.0511 8.29598 19.8603 8.15533 19.7197C8.01468 19.579 7.82391 19.5 7.625 19.5ZM4.25 7.875C4.44891 7.875 4.63968 7.79598 4.78033 7.65533C4.92098 7.51468 5 7.32391 5 7.125V4.5H7.625C7.82391 4.5 8.01468 4.42098 8.15533 4.28033C8.29598 4.13968 8.375 3.94891 8.375 3.75C8.375 3.55109 8.29598 3.36032 8.15533 3.21967C8.01468 3.07902 7.82391 3 7.625 3H5C4.60218 3 4.22064 3.15804 3.93934 3.43934C3.65804 3.72064 3.5 4.10218 3.5 4.5V7.125C3.5 7.32391 3.57902 7.51468 3.71967 7.65533C3.86032 7.79598 4.05109 7.875 4.25 7.875ZM17 16.5C16.8835 16.5003 16.7685 16.4734 16.6642 16.4214C16.5599 16.3695 16.4691 16.294 16.3991 16.2009C15.945 15.5955 15.3561 15.1041 14.6792 14.7656C14.0023 14.4271 13.2559 14.2509 12.4991 14.2509C11.7422 14.2509 10.9958 14.4271 10.3189 14.7656C9.64198 15.1041 9.05315 15.5955 8.59906 16.2009C8.47947 16.3601 8.30156 16.4652 8.10447 16.4931C7.90738 16.5211 7.70725 16.4696 7.54813 16.35C7.389 16.2304 7.28389 16.0525 7.25594 15.8554C7.22798 15.6583 7.27947 15.4582 7.39906 15.2991C8.06374 14.4091 8.94961 13.7084 9.96875 13.2666C9.41029 12.7567 9.01903 12.0899 8.84631 11.3537C8.67359 10.6175 8.72749 9.84624 9.00093 9.14121C9.27436 8.43617 9.75456 7.83028 10.3785 7.40304C11.0025 6.9758 11.741 6.74718 12.4972 6.74718C13.2534 6.74718 13.9919 6.9758 14.6159 7.40304C15.2398 7.83028 15.72 8.43617 15.9934 9.14121C16.2669 9.84624 16.3208 10.6175 16.1481 11.3537C15.9753 12.0899 15.5841 12.7567 15.0256 13.2666C16.0454 13.7081 16.932 14.4088 17.5972 15.2991C17.6809 15.4103 17.732 15.5426 17.7447 15.6812C17.7575 15.8199 17.7314 15.9593 17.6694 16.0839C17.6075 16.2086 17.512 16.3135 17.3938 16.387C17.2756 16.4605 17.1392 16.4996 17 16.5ZM12.5 12.75C12.945 12.75 13.38 12.618 13.75 12.3708C14.12 12.1236 14.4084 11.7722 14.5787 11.361C14.749 10.9499 14.7936 10.4975 14.7068 10.061C14.62 9.62459 14.4057 9.22368 14.091 8.90901C13.7763 8.59434 13.3754 8.38005 12.939 8.29323C12.5025 8.20642 12.0501 8.25097 11.639 8.42127C11.2278 8.59157 10.8764 8.87996 10.6292 9.24997C10.382 9.61998 10.25 10.055 10.25 10.5C10.25 11.0967 10.4871 11.669 10.909 12.091C11.331 12.5129 11.9033 12.75 12.5 12.75Z" fill="#908DA8"/>
</svg>
