<svg width="25" height="24" viewBox="0 0 25 24" fill="none" xmlns="http://www.w3.org/2000/svg">
<path d="M11.4921 14.805C12.4973 14.1358 13.2605 13.1609 13.6687 12.0244C14.077 10.888 14.1087 9.6503 13.7591 8.49443C13.4095 7.33856 12.6973 6.32587 11.7276 5.60611C10.758 4.88635 9.5825 4.49774 8.37492 4.49774C7.16735 4.49774 5.99184 4.88635 5.02221 5.60611C4.05258 6.32587 3.34032 7.33856 2.99076 8.49443C2.6412 9.6503 2.67288 10.888 3.08114 12.0244C3.4894 13.1609 4.25255 14.1358 5.25774 14.805C3.43945 15.4752 1.88659 16.7153 0.830862 18.3403C0.775377 18.4228 0.736837 18.5155 0.717482 18.613C0.698127 18.7105 0.698344 18.8108 0.718119 18.9082C0.737895 19.0056 0.776835 19.0981 0.832676 19.1804C0.888516 19.2626 0.960144 19.3329 1.0434 19.3872C1.12665 19.4415 1.21986 19.4787 1.31762 19.4967C1.41538 19.5146 1.51573 19.513 1.61285 19.4918C1.70996 19.4706 1.8019 19.4304 1.88332 19.3734C1.96473 19.3164 2.03401 19.2437 2.08711 19.1597C2.7681 18.1123 3.69995 17.2516 4.79802 16.6558C5.8961 16.06 7.12562 15.7479 8.37492 15.7479C9.62423 15.7479 10.8538 16.06 11.9518 16.6558C13.0499 17.2516 13.9817 18.1123 14.6627 19.1597C14.7727 19.3232 14.9427 19.4368 15.1358 19.476C15.3289 19.5152 15.5297 19.4769 15.6947 19.3692C15.8598 19.2616 15.9758 19.0933 16.0178 18.9008C16.0598 18.7082 16.0243 18.5069 15.919 18.3403C14.8633 16.7153 13.3104 15.4752 11.4921 14.805ZM4.24992 10.125C4.24992 9.30918 4.49185 8.51165 4.94511 7.8333C5.39837 7.15494 6.04261 6.62623 6.79636 6.31402C7.5501 6.00181 8.3795 5.92012 9.17967 6.07929C9.97984 6.23845 10.7148 6.63132 11.2917 7.20821C11.8686 7.7851 12.2615 8.5201 12.4207 9.32028C12.5798 10.1204 12.4981 10.9498 12.1859 11.7036C11.8737 12.4573 11.345 13.1016 10.6667 13.5548C9.9883 14.0081 9.19077 14.25 8.37492 14.25C7.28129 14.2488 6.2328 13.8138 5.45948 13.0405C4.68616 12.2672 4.25117 11.2187 4.24992 10.125ZM23.9506 19.3781C23.784 19.4868 23.581 19.5248 23.3864 19.4838C23.1918 19.4429 23.0214 19.3263 22.9127 19.1597C22.2326 18.1117 21.3008 17.2506 20.2025 16.6551C19.1042 16.0595 17.8743 15.7484 16.6249 15.75C16.426 15.75 16.2352 15.671 16.0946 15.5304C15.9539 15.3897 15.8749 15.1989 15.8749 15C15.8749 14.8011 15.9539 14.6103 16.0946 14.4697C16.2352 14.329 16.426 14.25 16.6249 14.25C17.2324 14.2495 17.8322 14.1147 18.3816 13.8554C18.931 13.5962 19.4163 13.2188 19.8029 12.7502C20.1895 12.2816 20.4678 11.7334 20.618 11.1448C20.7682 10.5562 20.7865 9.94168 20.6716 9.34516C20.5568 8.74865 20.3116 8.18486 19.9536 7.69408C19.5956 7.20331 19.1337 6.79766 18.6007 6.50612C18.0678 6.21458 17.477 6.04435 16.8707 6.00759C16.2643 5.97082 15.6573 6.06844 15.0931 6.29346C15.001 6.33323 14.902 6.35416 14.8018 6.35501C14.7016 6.35585 14.6022 6.3366 14.5095 6.29839C14.4169 6.26018 14.3328 6.20379 14.2623 6.13254C14.1918 6.06129 14.1363 5.97664 14.0991 5.88358C14.0619 5.79052 14.0437 5.69094 14.0456 5.59073C14.0475 5.49052 14.0695 5.39171 14.1102 5.30014C14.151 5.20856 14.2097 5.12609 14.2828 5.05758C14.356 4.98907 14.4421 4.93592 14.5362 4.90127C15.8275 4.38626 17.2639 4.36773 18.5681 4.84925C19.8723 5.33077 20.952 6.27823 21.5989 7.50885C22.2458 8.73947 22.414 10.1661 22.0711 11.5134C21.7283 12.8607 20.8986 14.0333 19.7421 14.805C21.5604 15.4752 23.1133 16.7153 24.169 18.3403C24.2776 18.5069 24.3156 18.7099 24.2747 18.9045C24.2337 19.0991 24.1171 19.2695 23.9506 19.3781Z" fill="#908DA8"/>
</svg>
