<svg width="20" height="18" viewBox="0 0 20 18" fill="none" xmlns="http://www.w3.org/2000/svg">
<path d="M10.8661 12.5595V15.2045C10.8658 15.4296 10.9211 15.6513 11.0272 15.8499C11.1333 16.0484 11.2867 16.2177 11.474 16.3426M10.8661 12.5595L14.4947 16.1719C14.4404 16.3833 14.3363 16.5786 14.1911 16.7415C14.0458 16.9044 13.8636 17.0301 13.6598 17.1081C13.4559 17.1861 13.2364 17.2141 13.0195 17.1898C12.8026 17.1655 12.5947 17.0896 12.4132 16.9685L11.474 16.3426M10.8661 12.5595C10.8692 12.559 10.8724 12.5586 10.8755 12.5581L10.8661 12.4963H10.8036V12.506C9.34344 12.7358 6.04375 13.5272 2.86517 16.1932C2.66602 16.3605 2.42325 16.4674 2.16542 16.5015C1.90758 16.5355 1.64539 16.4952 1.40965 16.3854C1.17391 16.2755 0.974423 16.1007 0.834639 15.8814C0.694855 15.6621 0.62058 15.4074 0.620544 15.1473L10.8661 12.5595ZM11.474 16.3426L11.5087 16.2907M11.474 16.3426L11.5086 16.2906L11.5087 16.2907M11.5087 16.2907C11.33 16.1714 11.1835 16.0099 11.0823 15.8204C10.9811 15.631 10.9283 15.4194 10.9286 15.2046V15.2045V12.4963V12.4236L10.8567 12.4345C9.42322 12.6524 6.06154 13.4307 2.82501 16.1453L2.82498 16.1454C2.63493 16.305 2.40328 16.407 2.15724 16.4395C1.9112 16.472 1.661 16.4336 1.43604 16.3287C1.21109 16.2239 1.02073 16.0571 0.887344 15.8478C0.753955 15.6385 0.683078 15.3955 0.683044 15.1473V1.48664C0.683238 1.23854 0.754226 0.99565 0.887672 0.786497C1.02112 0.577338 1.21149 0.410605 1.43641 0.305887C1.66134 0.201168 1.91147 0.162811 2.15744 0.195324C2.40341 0.227836 2.63499 0.329867 2.82498 0.48943L2.82501 0.489458C6.96272 3.95969 11.3079 4.26628 11.5625 4.28115L11.5625 4.28126H11.5662H14.9642C16.0342 4.28237 17.0601 4.70793 17.8167 5.46454C18.5733 6.22115 18.9989 7.24702 19 8.31704M11.5087 16.2907L12.4478 16.9165L12.4479 16.9165C12.6211 17.0321 12.8195 17.1045 13.0265 17.1277C13.2334 17.1509 13.4429 17.1241 13.6374 17.0497C13.832 16.9753 14.0058 16.8553 14.1444 16.6999C14.283 16.5445 14.3824 16.3581 14.4342 16.1563L14.4343 16.1559L15.4392 12.3684L15.4499 12.328L15.4914 12.3225C16.4623 12.1933 17.3532 11.716 17.9986 10.9792C18.6439 10.2425 18.9998 9.29646 19 8.31704M19 8.31704C19 8.31701 19 8.31698 19 8.31696L19.0625 8.31697L19 8.31704ZM1.92412 15.1414V15.2752L2.02673 15.1893C5.67224 12.1377 9.4 11.3663 10.8742 11.1726L10.9286 11.1654V11.1106V5.51994V5.46498L10.8741 5.45795C9.39831 5.26764 5.66973 4.49452 2.02678 1.43873L1.92412 1.35261V1.48661V15.1414ZM13.2338 15.8338V15.8325L14.1368 12.4312L14.1576 12.3527H14.0763H12.2322H12.1697V12.4152V15.208V15.2414L12.1975 15.26L13.1367 15.8858L13.2338 15.9505V15.8338ZM12.1697 11.0491V11.1116H12.2322H14.9643C15.7055 11.1116 16.4163 10.8172 16.9404 10.2931C17.4645 9.76899 17.7589 9.05816 17.7589 8.31697C17.7589 7.57579 17.4645 6.86496 16.9404 6.34086C16.4163 5.81676 15.7055 5.52233 14.9643 5.52233H12.2322H12.1697V5.58483V11.0491Z" fill="#AD3459" stroke="#61439D" stroke-width="0.125"/>
</svg>
