<svg width="24" height="24" viewBox="0 0 24 24" fill="none" xmlns="http://www.w3.org/2000/svg">
<path d="M13.144 5.22575H2.07101C1.78696 5.22575 1.51455 5.0941 1.31369 4.85977C1.11284 4.62543 1 4.30761 1 3.97622C1 3.64482 1.11284 3.327 1.31369 3.09266C1.51455 2.85833 1.78696 2.72668 2.07101 2.72668H13.144C13.144 1.34845 13.3907 1.5054 14.572 1.5054C15.7533 1.5054 16 1.34845 16 2.72668V5.22575C16 6.60398 15.7533 6.49812 14.572 6.49812C13.3907 6.49812 13.144 6.60398 13.144 5.22575Z" fill="white"/>
<path d="M21.7144 5.4873L18 5.51273V2.51273H20.1432L21.7144 2.4873C22.0554 2.4873 22.3824 2.64534 22.6235 2.92664C22.8647 3.20795 23.0001 3.58948 23.0001 3.9873C23.0001 4.38513 22.8647 4.76666 22.6235 5.04796C22.3824 5.32927 22.0554 5.4873 21.7144 5.4873Z" fill="white"/>
<path d="M5.14396 13.2257H2.07101C1.78696 13.2257 1.51455 13.0941 1.31369 12.8598C1.11284 12.6254 1 12.3076 1 11.9762C1 11.6448 1.11284 11.327 1.31369 11.0927C1.51455 10.8583 1.78696 10.7267 2.07101 10.7267H5.14396C5.14396 9.34845 5.39065 9.5054 6.57198 9.5054C7.75331 9.5054 8 9.34845 8 10.7267V13.2257C8 14.604 7.75331 14.4981 6.57198 14.4981C5.39065 14.4981 5.14396 14.604 5.14396 13.2257Z" fill="white"/>
<path d="M21.7144 13.5H9.85683V10.5H12H21.7144C22.0554 10.5 22.3824 10.658 22.6236 10.9393C22.8647 11.2206 23.0001 11.6022 23.0001 12C23.0001 12.3978 22.8647 12.7794 22.6236 13.0607C22.3824 13.342 22.0554 13.5 21.7144 13.5Z" fill="white"/>
<path d="M9.14445 21.2257H2.07101C1.78696 21.2257 1.51455 21.0941 1.31369 20.8598C1.11284 20.6254 1 20.3076 1 19.9762C1 19.6448 1.11284 19.327 1.31369 19.0927C1.51455 18.8583 1.78696 18.7267 2.07101 18.7267H9.14445C9.14445 17.3485 9.39114 17.5054 10.5725 17.5054C11.7538 17.5054 12.0005 17.3485 12.0005 18.7267V21.2257C12.0005 22.604 11.7538 22.4981 10.5725 22.4981C9.39114 22.4981 9.14445 22.604 9.14445 21.2257Z" fill="white"/>
<path d="M21.7143 21.5H14V18.5H16.1432H21.7143C22.0553 18.5 22.3823 18.658 22.6235 18.9393C22.8646 19.2206 23 19.6022 23 20C23 20.3978 22.8646 20.7794 22.6235 21.0607C22.3823 21.342 22.0553 21.5 21.7143 21.5Z" fill="white"/>
</svg>
