<svg width="20" height="16" viewBox="0 0 20 16" fill="none" xmlns="http://www.w3.org/2000/svg">
<path d="M5.46425 12.4397C5.46433 12.0302 5.32242 11.6334 5.06269 11.3167C4.80295 11.0001 4.44147 10.7834 4.03983 10.7034C3.63819 10.6234 3.22125 10.6852 2.86004 10.8782C2.49884 11.0711 2.21572 11.3834 2.05893 11.7617C1.90214 12.14 1.88139 12.561 2.0002 12.9529C2.11901 13.3448 2.37003 13.6834 2.7105 13.911C3.05097 14.1386 3.45982 14.2411 3.86738 14.201C4.2749 14.1609 4.65593 13.9808 4.94554 13.6913M5.46425 12.4397C5.4649 12.6723 5.4194 12.9027 5.33037 13.1175C5.24133 13.3323 5.11052 13.5274 4.94554 13.6913M5.46425 12.4397C5.46425 12.4397 5.46425 12.4396 5.46425 12.4396L5.40175 12.4398L5.46425 12.4398C5.46425 12.4398 5.46425 12.4398 5.46425 12.4397ZM4.94554 13.6913C4.94552 13.6913 4.9455 13.6913 4.94547 13.6914L4.90142 13.647L4.94561 13.6912C4.94559 13.6912 4.94556 13.6913 4.94554 13.6913ZM4.94575 4.81077C5.19328 4.56326 5.36187 4.24791 5.4302 3.9046M4.94575 4.81077C4.9457 4.81081 4.94566 4.81086 4.94561 4.81091L4.90142 4.76671L4.94594 4.81057C4.94588 4.81064 4.94582 4.8107 4.94575 4.81077ZM4.94575 4.81077L5.4302 3.9046M5.4302 3.9046C5.49854 3.56122 5.46352 3.20529 5.32956 2.88182C5.1956 2.55834 4.96872 2.28186 4.67762 2.08734C4.38652 1.89282 4.04427 1.78899 3.69416 1.78899C3.34404 1.78899 3.00179 1.89282 2.71069 2.08734C2.41959 2.28186 2.19272 2.55834 2.05876 2.88182C1.9248 3.20529 1.88978 3.56122 1.95812 3.9046C2.02645 4.2479 2.19502 4.56324 2.44254 4.81074L5.4302 3.9046ZM12.0899 6.69512L12.0899 6.69511C12.0437 6.6278 12.0113 6.55206 11.9945 6.47222C11.9777 6.39238 11.9768 6.31001 11.9919 6.22983C12.0069 6.14964 12.0376 6.07321 12.0823 6.00491C12.1269 5.9366 12.1846 5.87778 12.252 5.83179L12.252 5.83174L18.0276 1.87951C18.1633 1.79598 18.3259 1.76784 18.4818 1.80096C18.6382 1.83418 18.7757 1.92646 18.8657 2.05856C18.9557 2.19066 18.9913 2.3524 18.965 2.51007C18.9387 2.66732 18.853 2.80843 18.7255 2.90414L12.949 6.85644L12.9488 6.85657C12.8461 6.92743 12.7242 6.96527 12.5993 6.96506C12.4989 6.96465 12.4001 6.93988 12.3114 6.89289C12.2226 6.84587 12.1466 6.778 12.0899 6.69512ZM18.0288 14.1214L18.0288 14.1214L10.2183 8.77663L10.183 8.75248L10.1477 8.77662L6.51823 11.2595L6.47711 11.2876L6.49536 11.3339C6.76665 12.0229 6.7746 12.7876 6.51768 13.4821C6.26077 14.1765 5.757 14.7519 5.10263 15.0984C4.44827 15.4448 3.68919 15.5381 2.97043 15.3603C2.25167 15.1824 1.62363 14.746 1.2063 14.1344C0.788971 13.5228 0.61162 12.7788 0.708131 12.0447C0.804643 11.3106 1.16825 10.6378 1.72948 10.1548C2.29071 9.67187 3.01021 9.41261 3.75051 9.4266C4.49081 9.4406 5.2 9.72686 5.74257 10.2307L5.7792 10.2647L5.82043 10.2364L9.0085 8.05158L9.08378 7.99999L9.00847 7.94845L5.81613 5.76359L5.77495 5.7354L5.73834 5.76933C5.19764 6.27053 4.49128 6.55501 3.75414 6.56845C3.017 6.58189 2.30074 6.32335 1.74213 5.8422C1.18351 5.36105 0.82169 4.691 0.725754 3.96001C0.629817 3.22902 0.806488 2.4883 1.22203 1.8793C1.63757 1.2703 2.26287 0.835695 2.97851 0.658472C3.69415 0.481248 4.45 0.573827 5.10172 0.918528C5.75344 1.26323 6.25536 1.8359 6.51164 2.52719C6.76792 3.21847 6.7606 3.97993 6.49107 4.66616L6.47288 4.71248L6.51395 4.74059L18.7232 13.0967L18.7237 13.097C18.7915 13.1425 18.8496 13.2011 18.8948 13.2692C18.9399 13.3373 18.9712 13.4136 18.9868 13.4938C19.0023 13.574 19.0019 13.6565 18.9855 13.7366C18.9691 13.8166 18.9371 13.8927 18.8912 13.9603C18.7982 14.0959 18.6552 14.1891 18.4935 14.2193C18.3318 14.2496 18.1646 14.2144 18.0288 14.1214Z" fill="#AD3459" stroke="#61439D" stroke-width="0.125"/>
</svg>
