<svg xmlns="http://www.w3.org/2000/svg" width="25" height="24" viewBox="0 0 25 24" fill="none">
  <path d="M20.4199 4.5H16.8199V3.75C16.8199 3.15326 16.5923 2.58097 16.1872 2.15901C15.7821 1.73705 15.2327 1.5 14.6599 1.5H10.3399C9.767 1.5 9.21759 1.73705 8.81251 2.15901C8.40743 2.58097 8.17986 3.15326 8.17986 3.75V4.5H4.57986C4.38891 4.5 4.20577 4.57902 4.07075 4.71967C3.93572 4.86032 3.85986 5.05109 3.85986 5.25C3.85986 5.44891 3.93572 5.63968 4.07075 5.78033C4.20577 5.92098 4.38891 6 4.57986 6H5.29986V19.5C5.29986 19.8978 5.45158 20.2794 5.72163 20.5607C5.99168 20.842 6.35795 21 6.73986 21H18.2599C18.6418 21 19.008 20.842 19.2781 20.5607C19.5481 20.2794 19.6999 19.8978 19.6999 19.5V6H20.4199C20.6108 6 20.794 5.92098 20.929 5.78033C21.064 5.63968 21.1399 5.44891 21.1399 5.25C21.1399 5.05109 21.064 4.86032 20.929 4.71967C20.794 4.57902 20.6108 4.5 20.4199 4.5ZM9.61986 3.75C9.61986 3.55109 9.69572 3.36032 9.83075 3.21967C9.96577 3.07902 10.1489 3 10.3399 3H14.6599C14.8508 3 15.034 3.07902 15.169 3.21967C15.304 3.36032 15.3799 3.55109 15.3799 3.75V4.5H9.61986V3.75ZM18.2599 19.5H6.73986V6H18.2599V19.5ZM11.0599 9.75V15.75C11.0599 15.9489 10.984 16.1397 10.849 16.2803C10.714 16.421 10.5308 16.5 10.3399 16.5C10.1489 16.5 9.96577 16.421 9.83075 16.2803C9.69572 16.1397 9.61986 15.9489 9.61986 15.75V9.75C9.61986 9.55109 9.69572 9.36032 9.83075 9.21967C9.96577 9.07902 10.1489 9 10.3399 9C10.5308 9 10.714 9.07902 10.849 9.21967C10.984 9.36032 11.0599 9.55109 11.0599 9.75ZM15.3799 9.75V15.75C15.3799 15.9489 15.304 16.1397 15.169 16.2803C15.034 16.421 14.8508 16.5 14.6599 16.5C14.4689 16.5 14.2858 16.421 14.1507 16.2803C14.0157 16.1397 13.9399 15.9489 13.9399 15.75V9.75C13.9399 9.55109 14.0157 9.36032 14.1507 9.21967C14.2858 9.07902 14.4689 9 14.6599 9C14.8508 9 15.034 9.07902 15.169 9.21967C15.304 9.36032 15.3799 9.55109 15.3799 9.75Z" fill="#714FB6"/>
</svg>