<svg width="328" height="236" viewBox="0 0 328 236" fill="none" xmlns="http://www.w3.org/2000/svg">
<g clip-path="url(#clip0_841_50105)">
<rect x="0.5" width="327" height="236" rx="16" fill="#F9F7FD"/>
<path d="M60.5 28H37.5C32.5294 28 28.5 32.0294 28.5 37V60" stroke="#7C5BC2" stroke-width="4"/>
<rect x="81.5" y="49" width="166" height="216" rx="8" fill="white"/>
<rect x="128.5" y="81" width="72" height="4" fill="#E4DEF6"/>
<rect x="97.5" y="109" width="134" height="4" fill="#E4DEF6"/>
<rect x="97.5" y="129" width="134" height="4" fill="#E4DEF6"/>
<rect x="97.5" y="149" width="134" height="4" fill="#E4DEF6"/>
<rect x="97.5" y="169" width="134" height="4" fill="#E4DEF6"/>
<rect x="97.5" y="189" width="134" height="4" fill="#E4DEF6"/>
<rect x="97.5" y="209" width="134" height="4" fill="#E4DEF6"/>
<rect x="97.5" y="229" width="134" height="4" fill="#E4DEF6"/>
<path d="M267.5 208L290.5 208C295.471 208 299.5 203.971 299.5 199L299.5 176" stroke="#7C5BC2" stroke-width="4"/>
<path d="M267.5 28H290.5C295.471 28 299.5 32.0294 299.5 37V60" stroke="#7C5BC2" stroke-width="4"/>
<path d="M60.5 208L37.5 208C32.5294 208 28.5 203.971 28.5 199L28.5 176" stroke="#7C5BC2" stroke-width="4"/>
</g>
<rect x="1" y="0.5" width="326" height="235" rx="15.5" stroke="#E4DEF6"/>
<defs>
<clipPath id="clip0_841_50105">
<rect x="0.5" width="327" height="236" rx="16" fill="white"/>
</clipPath>
</defs>
</svg>
