<svg xmlns="http://www.w3.org/2000/svg" width="40" height="40" viewBox="0 0 40 40" fill="none">
  <path d="M36.9997 29.3892L23.3357 5.65948C22.9942 5.07811 22.5068 4.59607 21.9216 4.26113C21.3365 3.9262 20.6739 3.75 19.9997 3.75C19.3255 3.75 18.663 3.9262 18.0778 4.26113C17.4927 4.59607 17.0052 5.07811 16.6638 5.65948L2.99972 29.3892C2.67119 29.9515 2.49805 30.591 2.49805 31.2423C2.49805 31.8935 2.67119 32.5331 2.99972 33.0954C3.3368 33.6803 3.82343 34.165 4.40966 34.4997C4.9959 34.8344 5.66063 35.0071 6.33566 35.0001H33.6638C34.3383 35.0066 35.0024 34.8336 35.588 34.4989C36.1736 34.1642 36.6598 33.6798 36.9966 33.0954C37.3256 32.5334 37.4993 31.894 37.4998 31.2427C37.5004 30.5915 37.3278 29.9518 36.9997 29.3892ZM34.8325 31.8439C34.7134 32.0471 34.5424 32.2149 34.337 32.3302C34.1316 32.4456 33.8993 32.5042 33.6638 32.5001H6.33566C6.10016 32.5042 5.8678 32.4456 5.66243 32.3302C5.45705 32.2149 5.28603 32.0471 5.16691 31.8439C5.05901 31.6612 5.00209 31.4529 5.00209 31.2407C5.00209 31.0286 5.05901 30.8203 5.16691 30.6376L18.831 6.90792C18.9525 6.70568 19.1243 6.53834 19.3296 6.42217C19.535 6.30599 19.7669 6.24494 20.0028 6.24494C20.2388 6.24494 20.4707 6.30599 20.6761 6.42217C20.8814 6.53834 21.0532 6.70568 21.1747 6.90792L34.8388 30.6376C34.9457 30.8208 35.0016 31.0294 35.0005 31.2416C34.9994 31.4537 34.9414 31.6617 34.8325 31.8439ZM18.7497 22.5001V16.2501C18.7497 15.9186 18.8814 15.6006 19.1158 15.3662C19.3503 15.1318 19.6682 15.0001 19.9997 15.0001C20.3312 15.0001 20.6492 15.1318 20.8836 15.3662C21.118 15.6006 21.2497 15.9186 21.2497 16.2501V22.5001C21.2497 22.8316 21.118 23.1496 20.8836 23.384C20.6492 23.6184 20.3312 23.7501 19.9997 23.7501C19.6682 23.7501 19.3503 23.6184 19.1158 23.384C18.8814 23.1496 18.7497 22.8316 18.7497 22.5001ZM21.8747 28.1251C21.8747 28.4959 21.7648 28.8585 21.5587 29.1668C21.3527 29.4751 21.0599 29.7155 20.7173 29.8574C20.3746 29.9993 19.9976 30.0364 19.6339 29.9641C19.2702 29.8917 18.9361 29.7132 18.6739 29.4509C18.4117 29.1887 18.2331 28.8546 18.1608 28.4909C18.0884 28.1272 18.1255 27.7502 18.2674 27.4076C18.4094 27.065 18.6497 26.7721 18.958 26.5661C19.2664 26.3601 19.6289 26.2501 19.9997 26.2501C20.497 26.2501 20.9739 26.4476 21.3255 26.7993C21.6772 27.1509 21.8747 27.6278 21.8747 28.1251Z" fill="#AD3459"/>
</svg>